<?xml version="1.0" encoding="utf-8"?>
<!-- Generator: Adobe Illustrator 15.0.0, SVG Export Plug-In . SVG Version: 6.00 Build 0)  -->
<!DOCTYPE svg PUBLIC "-//W3C//DTD SVG 1.1//EN" "http://www.w3.org/Graphics/SVG/1.1/DTD/svg11.dtd">
<svg version="1.1" id="Layer_1" xmlns="http://www.w3.org/2000/svg" xmlns:xlink="http://www.w3.org/1999/xlink" x="0px" y="0px"
	 width="24px" height="26px" viewBox="0 0 24 26" enable-background="new 0 0 24 26" xml:space="preserve">
<g>
	<g>
		<path fill="#F9F9F9" stroke="#B0B0B0" stroke-linejoin="round" stroke-miterlimit="10" d="M22.695,1.394
			c0-0.491-0.402-0.894-0.893-0.894H2.196c-0.49,0-0.892,0.402-0.892,0.894v23.214c0,0.491,0.401,0.893,0.892,0.893h11.337
			l9.162-9.178V1.394z"/>
		<path fill="#FFFFFF" stroke="#B0B0B0" stroke-linejoin="round" stroke-miterlimit="10" d="M22.695,16.322h-8.27
			c-0.49,0-0.891,0.402-0.891,0.894V25.5L22.695,16.322z"/>
	</g>
	<g>
		
			<line fill="none" stroke="#B0B0B0" stroke-linejoin="round" stroke-miterlimit="10" x1="4.661" y1="5.646" x2="19.34" y2="5.646"/>
		
			<line fill="none" stroke="#B0B0B0" stroke-linejoin="round" stroke-miterlimit="10" x1="4.661" y1="13.653" x2="12.701" y2="13.653"/>
		
			<line fill="none" stroke="#B0B0B0" stroke-linejoin="round" stroke-miterlimit="10" x1="4.661" y1="16.322" x2="9.582" y2="16.322"/>
		
			<line fill="none" stroke="#B0B0B0" stroke-linejoin="round" stroke-miterlimit="10" x1="4.661" y1="8.315" x2="19.34" y2="8.315"/>
		
			<line fill="none" stroke="#B0B0B0" stroke-linejoin="round" stroke-miterlimit="10" x1="4.661" y1="10.984" x2="19.34" y2="10.984"/>
	</g>
</g>
</svg>
