<?xml version="1.0" encoding="utf-8"?>
<!-- Generator: Adobe Illustrator 15.0.0, SVG Export Plug-In . SVG Version: 6.00 Build 0)  -->
<!DOCTYPE svg PUBLIC "-//W3C//DTD SVG 1.1//EN" "http://www.w3.org/Graphics/SVG/1.1/DTD/svg11.dtd">
<svg version="1.1" id="Layer_1" xmlns="http://www.w3.org/2000/svg" xmlns:xlink="http://www.w3.org/1999/xlink" x="0px" y="0px"
	 width="60px" height="60px" viewBox="0 0 60 60" enable-background="new 0 0 60 60" xml:space="preserve">
<g>
	<path fill="#FFFFFF" d="M41.313,18.687c-3.022-3.022-7.04-4.686-11.313-4.686c-4.274,0-8.292,1.663-11.314,4.686
		C15.665,21.709,14,25.729,14,30.002c0,2.938,0.8,5.801,2.318,8.299l-2.286,6.857c-0.077,0.23-0.017,0.482,0.155,0.655
		C14.31,45.936,14.474,46,14.64,46c0.068,0,0.137-0.01,0.202-0.031l6.858-2.287C24.198,45.201,27.061,46,30,46
		c4.273,0,8.291-1.662,11.313-4.686C44.336,38.293,46,34.275,46,30.002S44.336,21.709,41.313,18.687z M23.137,32.001
		c-1.104,0-2-0.896-2-2s0.896-2.001,2-2.001s2,0.896,2,2.001S24.241,32.001,23.137,32.001z M30,32.001c-1.104,0-2-0.896-2-2
		S28.896,28,30,28s2,0.896,2,2.001S31.104,32.001,30,32.001z M36.863,32.001c-1.104,0-2-0.896-2-2s0.896-2.001,2-2.001
		s2,0.896,2,2.001S37.968,32.001,36.863,32.001z"/>
</g>
</svg>
