<?xml version="1.0" encoding="utf-8"?>
<!-- Generator: Adobe Illustrator 22.1.0, SVG Export Plug-In . SVG Version: 6.00 Build 0)  -->
<svg version="1.1" id="Layer_1" xmlns="http://www.w3.org/2000/svg" xmlns:xlink="http://www.w3.org/1999/xlink" x="0px" y="0px"
	 viewBox="0 0 41 41" style="enable-background:new 0 0 41 41;" xml:space="preserve">
<style type="text/css">
	.st0{fill:#E6B803;}
</style>
<title>Group 5 Copy</title>
<desc>Created with Sketch.</desc>
<g id="Engage-ManagerMessaging-Dashboard">
	<g id="EngageManager-Dashboard-SelectEmployee" transform="translate(-931.000000, -720.000000)">
		<g id="Group-5-Copy" transform="translate(924.000000, 713.000000)">
			<g>
				<path class="st0" d="M44.9,33.8c-0.4-0.4-0.9-0.8-1.4-1.1c2.4-6.5,0.9-14.2-4.3-19.4c-7.2-7.2-18.9-7.2-26.2,0s-7.2,18.9,0,26.2
					c5.2,5.2,12.9,6.7,19.4,4.3c0.3,0.5,0.7,0.9,1.1,1.4c3.1,3.1,8.2,3.1,11.3,0C48.1,42.1,48.1,37,44.9,33.8z M23.6,32.5
					c-2.1,0-4.2-0.8-5.8-2.4c-3.2-3.2-3.2-8.4,0-11.6c1.6-1.6,3.6-2.4,5.8-2.4c2.2,0,4.3,0.9,5.8,2.4c3.1,3.1,3.2,8.2,0.2,11.4
					l3.6,3.6c0.2,0.2,0.2,0.5,0,0.7c-0.1,0.1-0.2,0.1-0.4,0.1s-0.3,0-0.4-0.1l-3.6-3.6C27.4,31.9,25.5,32.5,23.6,32.5z M44.2,44.5
					c-2.8,2.8-7.2,2.8-10,0c-2.8-2.8-2.8-7.2,0-10c2.8-2.8,7.2-2.8,10,0C47,37.3,47,41.8,44.2,44.5z"/>
				<path class="st0" d="M28.7,19.2c-1.4-1.4-3.2-2.1-5.1-2.1c-1.9,0-3.7,0.8-5.1,2.1c-2.8,2.8-2.8,7.4,0,10.2
					c2.8,2.8,7.4,2.8,10.2,0C31.6,26.6,31.6,22,28.7,19.2z"/>
			</g>
			<g id="Group-3-Copy" transform="translate(35.589775, 35.875429)">
				<path id="Combined-Shape" class="st0" d="M4.3,3.6l2.3,2.3c0.2,0.2,0.2,0.5,0,0.7s-0.5,0.2-0.7,0L3.6,4.3L1.4,6.6
					c-0.2,0.2-0.5,0.2-0.7,0s-0.2-0.5,0-0.7l2.3-2.3L0.6,1.4c-0.2-0.2-0.2-0.5,0-0.7s0.5-0.2,0.7,0l2.3,2.3l2.3-2.3
					c0.2-0.2,0.5-0.2,0.7,0s0.2,0.5,0,0.7L4.3,3.6z"/>
			</g>
		</g>
	</g>
</g>
</svg>
