<?xml version="1.0" encoding="utf-8"?>
<!-- Generator: Adobe Illustrator 15.0.0, SVG Export Plug-In . SVG Version: 6.00 Build 0)  -->
<!DOCTYPE svg PUBLIC "-//W3C//DTD SVG 1.1//EN" "http://www.w3.org/Graphics/SVG/1.1/DTD/svg11.dtd">
<svg version="1.1" id="Layer_1" xmlns="http://www.w3.org/2000/svg" xmlns:xlink="http://www.w3.org/1999/xlink" x="0px" y="0px"
	 width="32px" height="32px" viewBox="0 0 32 32" enable-background="new 0 0 32 32" xml:space="preserve">
<rect fill="#D2C4FF" width="32" height="32"/>
<g>
	<path fill="#FFFFFF" d="M15.871,16.68c2.945,0,5.333-2.386,5.333-5.333c0-2.946-2.388-5.333-5.333-5.333
		c-2.948,0-5.334,2.387-5.334,5.333C10.537,14.294,12.923,16.68,15.871,16.68L15.871,16.68L15.871,16.68z"/>
</g>
<path fill="#7B5FD9" d="M5.75,29.771c0,0,0-2.192,0-4.875c0-2.682,4.613-4.875,10.25-4.875c5.639,0,10.25,2.193,10.25,4.875
	c0,2.683,0,4.875,0,4.875H5.75z"/>
</svg>
